<?xml version="1.0" standalone="no"?>
<!DOCTYPE svg PUBLIC "-//W3C//DTD SVG 20010904//EN"
 "http://www.w3.org/TR/2001/REC-SVG-20010904/DTD/svg10.dtd">
<svg version="1.0" xmlns="http://www.w3.org/2000/svg"
 width="296.000000pt" height="296.000000pt" viewBox="0 0 296.000000 296.000000"
 preserveAspectRatio="xMidYMid meet">
<metadata>
Created by potrace 1.14, written by Peter Selinger 2001-2017
</metadata>
<g transform="translate(0.000000,296.000000) scale(0.100000,-0.100000)"
fill="#000000" stroke="none">
<path d="M1370 2659 c-100 -59 -314 -182 -409 -237 -25 -13 -68 -38 -95 -55
-52 -30 -90 -53 -161 -92 -180 -102 -291 -169 -297 -178 -10 -16 -10 -1229 0
-1242 7 -11 38 -32 94 -64 34 -19 138 -79 196 -112 17 -11 47 -27 65 -38 17
-10 61 -35 97 -56 36 -21 80 -46 98 -56 17 -11 47 -27 65 -38 67 -39 226 -131
337 -195 63 -36 121 -66 128 -66 11 0 52 22 237 130 76 44 235 135 285 163 30
17 95 55 144 84 49 29 90 53 92 53 4 0 162 92 216 126 21 13 40 24 44 24 3 0
19 9 35 21 l29 20 0 627 -1 627 -530 305 c-292 168 -539 306 -548 307 -9 2
-63 -25 -121 -58z m90 -135 c0 -90 -2 -106 -17 -111 -10 -4 -52 -27 -93 -51
-90 -54 -107 -64 -235 -137 -55 -32 -113 -65 -130 -75 -279 -162 -293 -170
-310 -170 -18 0 -166 93 -167 105 0 5 12 17 28 26 16 9 45 25 64 36 19 11 80
46 135 78 55 31 114 65 130 75 17 10 75 43 130 75 55 31 114 65 130 75 36 21
215 124 265 152 19 11 39 24 44 29 20 18 26 -7 26 -107z m235 16 c88 -51 178
-103 200 -115 22 -13 81 -46 130 -75 50 -29 104 -60 120 -70 17 -10 89 -51
161 -92 72 -41 141 -82 153 -91 l23 -15 -24 -15 c-12 -8 -49 -31 -81 -51 -57
-36 -94 -45 -112 -27 -6 6 -55 35 -110 67 -55 31 -113 64 -130 74 -16 10 -75
44 -130 75 -55 32 -113 65 -130 75 -16 10 -78 46 -137 80 l-108 63 0 109 c0
60 3 107 8 105 4 -3 79 -46 167 -97z m-235 -333 l0 -143 -82 -47 c-46 -26
-103 -59 -128 -73 -25 -15 -92 -54 -150 -87 -58 -33 -109 -60 -115 -60 -15 0
-235 133 -235 142 0 7 180 115 399 239 25 14 68 38 95 55 28 16 65 38 81 47
17 9 50 29 75 43 25 14 48 26 53 27 4 0 7 -64 7 -143z m95 129 c11 -7 37 -23
58 -35 20 -11 52 -29 70 -40 17 -10 61 -35 97 -56 36 -21 79 -45 95 -55 78
-46 303 -175 328 -187 15 -8 27 -20 27 -26 0 -11 -197 -138 -226 -145 -6 -2
-51 20 -100 49 -49 28 -107 61 -129 74 -22 12 -88 50 -147 85 l-108 62 0 144
c0 79 3 144 8 144 4 0 16 -6 27 -14z m951 -1414 c-3 -2 -36 13 -73 35 -37 21
-76 42 -85 46 -17 6 -18 37 -18 462 0 453 0 455 21 467 12 7 51 32 88 55 l66
42 3 -551 c1 -303 0 -553 -2 -556z m-1941 1050 l80 -47 0 -454 0 -455 -83 -48
c-46 -26 -88 -48 -93 -48 -5 0 -9 224 -9 550 0 433 3 550 13 550 6 0 48 -21
92 -48z m895 -105 c0 -106 -3 -126 -17 -139 -26 -22 -160 -98 -173 -98 -18 0
-210 114 -210 125 0 10 14 20 74 55 103 59 237 136 271 156 22 13 43 23 48 24
4 0 7 -56 7 -123z m112 98 c20 -14 39 -25 41 -25 3 0 56 -30 118 -66 63 -37
132 -77 154 -89 22 -13 40 -28 40 -33 0 -10 -118 -92 -133 -92 -4 0 -18 -9
-32 -20 -34 -26 -40 -26 -112 17 -35 21 -76 45 -93 54 l-30 16 -3 132 c-1 72
1 131 5 131 5 0 25 -11 45 -25z m-734 -154 l92 -53 0 -292 c0 -332 13 -288
-100 -349 -30 -17 -64 -36 -75 -44 -46 -31 -45 -37 -45 397 0 392 1 409 18
402 10 -4 60 -31 110 -61z m1432 -346 c0 -317 -3 -405 -12 -405 -7 0 -47 19
-88 43 -41 23 -88 48 -103 56 l-27 14 0 284 0 283 67 42 c109 69 137 86 151
87 9 1 12 -86 12 -404z m-1157 183 c115 -67 107 -53 107 -193 l0 -124 -27 -14
c-16 -8 -62 -33 -104 -55 -42 -23 -79 -39 -83 -35 -8 8 -8 468 1 476 3 4 17 0
30 -8 13 -9 47 -30 76 -47z m862 -426 c-3 -3 -15 0 -27 6 -50 25 -173 94 -185
104 -9 7 -13 44 -13 123 l0 114 28 14 c15 8 65 37 112 66 l85 51 3 -236 c1
-131 0 -239 -3 -242z m-383 401 l98 -57 0 -121 0 -120 -100 -59 -101 -58 -102
58 -102 59 -3 116 c-2 85 1 119 10 126 12 10 29 20 126 74 20 11 41 25 47 30
15 15 24 11 127 -48z m-229 -410 l97 -55 0 -123 c0 -68 -4 -126 -8 -129 -4 -2
-39 14 -77 36 -39 22 -83 49 -100 58 -16 10 -77 45 -135 78 -58 33 -106 67
-108 76 -2 9 1 16 6 16 5 0 52 24 103 54 52 30 101 52 109 50 8 -3 59 -30 113
-61z m476 9 c58 -32 106 -63 108 -69 3 -8 -406 -253 -423 -253 -3 0 -3 59 -2
131 l3 132 100 58 c55 31 102 58 105 58 3 0 52 -26 109 -57z m-688 -218 c101
-58 202 -116 224 -129 92 -51 85 -37 85 -163 0 -96 -2 -113 -15 -109 -21 9
-625 356 -657 379 -27 19 -37 38 -19 38 5 0 44 20 88 45 43 24 85 45 94 45 9
0 99 -48 200 -106z m978 55 c75 -42 90 -54 79 -64 -11 -10 -148 -91 -318 -187
-161 -92 -272 -157 -309 -180 -25 -15 -49 -28 -53 -28 -4 0 -8 51 -8 114 l0
114 243 141 c133 77 249 141 258 141 9 0 58 -23 108 -51z m-1308 -165 c63 -37
134 -78 159 -92 25 -14 83 -47 130 -75 47 -27 99 -58 115 -67 17 -9 50 -29 75
-43 25 -15 71 -41 103 -58 l57 -32 0 -103 c0 -93 -2 -104 -18 -104 -10 0 -22
4 -27 9 -6 6 -71 45 -147 88 -496 284 -758 439 -755 448 5 15 149 94 173 95
12 0 73 -30 135 -66z m1565 23 c43 -24 79 -48 81 -53 2 -6 -54 -43 -124 -82
-71 -40 -148 -84 -173 -99 -61 -35 -94 -54 -170 -98 -36 -21 -78 -45 -95 -55
-16 -10 -91 -53 -165 -95 -74 -43 -154 -89 -177 -102 l-43 -25 0 110 0 110
118 68 c64 37 131 75 147 84 17 10 75 44 130 75 171 98 310 179 335 194 28 18
58 11 136 -32z"/>
</g>
</svg>
